<svg width="100%" height="100%" viewBox="0 0 1117 82" version="1.1" xmlns="http://www.w3.org/2000/svg" xmlns:xlink="http://www.w3.org/1999/xlink" xml:space="preserve" xmlns:serif="http://www.serif.com;" style="fill-rule:evenodd;clip-rule:evenodd;stroke-linejoin:round;stroke-miterlimit:2;">
    <defs>
        <linearGradient id="logo-gradient" x1="0%" y1="0%" x2="100%" y2="0%">
            <stop offset="0%" stop-color="#C5004B">
                <animate attributeName="stop-color" values="#C5004B; #E2299B; #FF51EB; #FB76C1; #F69A97; #F2BF6C; #FAAE7B; #F2BF6C; #F69A97; #FB76C1; #FF51EB; #E2299B; #C5004B" dur="25s" repeatCount="indefinite"></animate>
            </stop>
            <stop offset="100%" stop-color="#C5004B">
                <animate attributeName="stop-color" values="#C5004B; #7CCAD5; #58EFEC; #7CCAD5; #A0A6BE; #C481A7; #E85C90; #C5004B" dur="15s" repeatCount="indefinite"></animate>
            </stop>
            <animateTransform attributeName="gradientTransform" type="rotate" from="0 0.5 0.5" to="360 0.5 0.5" dur="25s" repeatCount="indefinite" />
        </linearGradient>
    </defs>
    <g transform="matrix(1,0,0,1,-23.3035,-742.535)" style="fill-rule:evenodd;clip-rule:evenodd;stroke-linejoin:round;stroke-miterlimit:2;">
        <g transform="matrix(1,0,0,1,-34.4534,10.9638)">
            <g transform="matrix(7.97964,0,0,7.97964,-2443.52,-4034.88)">
                <path d="M422.297,606.428L422.297,598.712L421.565,598.712L421.565,607.112L426.941,607.112L426.941,606.428L422.297,606.428Z" fill="url(#logo-gradient)"></path>
            </g>
            <g transform="matrix(7.97964,0,0,7.97964,-2443.52,-4034.88)">
                <path d="M435.701,607.112L436.457,607.112L432.965,598.712L432.149,598.712L428.669,607.112L429.425,607.112L430.421,604.688L434.705,604.688L435.701,607.112ZM430.685,604.016L432.557,599.456L434.429,604.016L430.685,604.016Z" fill="url(#logo-gradient)"></path>
            </g>
            <g transform="matrix(7.97964,0,0,7.97964,-2443.52,-4034.88)">
                <path d="M444.989,604.868C444.989,603.752 444.341,603.008 443.189,602.78C444.149,602.492 444.677,601.808 444.677,600.86C444.677,599.564 443.693,598.712 442.049,598.712L438.737,598.712L438.737,607.112L442.325,607.112C444.005,607.112 444.989,606.248 444.989,604.868ZM442.049,599.384C443.285,599.384 443.933,599.936 443.933,600.932C443.933,601.928 443.285,602.48 442.049,602.48L439.469,602.48L439.469,599.384L442.049,599.384ZM444.233,604.796C444.233,605.84 443.561,606.44 442.325,606.44L439.469,606.44L439.469,603.152L442.325,603.152C443.573,603.152 444.233,603.74 444.233,604.796Z" fill="url(#logo-gradient)"></path>
            </g>
            <g transform="matrix(7.97964,0,0,7.97964,-2443.52,-4034.88)">
                <path d="M447.053,605.312C447.533,606.548 448.709,607.268 450.353,607.268C452.237,607.268 453.365,606.332 453.365,604.88C453.365,603.764 452.705,603.068 451.085,602.684L449.801,602.384C448.505,602.06 448.049,601.628 448.049,600.848C448.049,599.804 448.853,599.216 450.209,599.216C451.361,599.216 452.225,599.636 452.621,600.452L453.197,600.104C452.777,599.156 451.697,598.556 450.221,598.556C448.409,598.556 447.293,599.48 447.293,600.848C447.293,601.952 448.049,602.648 449.633,603.032L450.893,603.332C452.105,603.632 452.621,604.1 452.621,604.904C452.621,605.948 451.769,606.608 450.365,606.608C449.069,606.608 448.121,606.056 447.641,604.988L447.053,605.312Z" fill="url(#logo-gradient)"></path>
            </g>
            </g>
        <g transform="matrix(1.49124,0,0,1.49124,-434.873,-477.051)">
            <circle cx="855.168" cy="847.399" r="4.692" fill="url(#logo-gradient)"/>
        </g>
        <g transform="matrix(7.97964,0,0,7.97964,-3159.37,-4024.77)">
            <path d="M406.217,598.712L403.409,603.38L400.601,598.712L398.849,598.712L398.849,607.112L400.337,607.112L400.337,600.944L402.809,605.036L403.997,605.036L406.469,600.944L406.469,607.112L407.957,607.112L407.957,598.712L406.217,598.712Z" fill="url(#logo-gradient)" />
            <path d="M410.297,602.912C410.261,605.336 412.157,607.316 414.665,607.28C417.173,607.316 419.069,605.336 419.033,602.912C419.069,600.5 417.173,598.496 414.665,598.544C412.157,598.496 410.261,600.5 410.297,602.912ZM417.437,602.912C417.437,604.604 416.309,605.852 414.665,605.852C413.021,605.852 411.893,604.604 411.893,602.912C411.893,601.22 413.021,599.972 414.665,599.972C416.309,599.972 417.437,601.22 417.437,602.912Z" fill="url(#logo-gradient)"/>
            <path d="M426.317,607.112L428.141,607.112L425.585,603.968C427.109,603.776 427.925,602.876 427.925,601.388C427.925,599.696 426.857,598.712 424.937,598.712L421.373,598.712L421.373,607.112L422.885,607.112L422.885,604.004L423.869,604.004L426.317,607.112ZM422.885,600.104L424.829,600.104C425.885,600.104 426.341,600.488 426.341,601.388C426.341,602.264 425.885,602.66 424.829,602.66L422.885,602.66L422.885,600.104Z" fill="url(#logo-gradient)"/>
            <path d="M436.181,598.712L436.181,604.664L431.753,598.712L430.325,598.712L430.325,607.112L431.825,607.112L431.825,601.16L436.241,607.112L437.669,607.112L437.669,598.712L436.181,598.712Z" fill="url(#logo-gradient)"/>
            <rect x="440.465" y="598.712" width="1.524" height="8.4" fill="url(#logo-gradient)"/>
            <path d="M450.629,598.712L450.629,604.664L446.201,598.712L444.773,598.712L444.773,607.112L446.273,607.112L446.273,601.16L450.689,607.112L452.117,607.112L452.117,598.712L450.629,598.712Z" fill="url(#logo-gradient)"/>
            <path d="M459.005,602.42L459.005,603.728L460.961,603.728L460.961,605.3C460.517,605.648 459.821,605.876 459.005,605.876C457.181,605.876 456.053,604.772 456.053,602.948C456.053,601.172 457.157,599.972 458.813,599.972C459.737,599.972 460.493,600.344 460.985,601.028L462.173,600.176C461.501,599.156 460.289,598.544 458.813,598.544C456.281,598.52 454.421,600.416 454.457,602.936C454.421,605.432 456.233,607.304 458.945,607.28C460.433,607.28 461.717,606.752 462.389,605.888L462.389,602.42L459.005,602.42Z" fill="url(#logo-gradient)"/>
            <path d="M464.201,605.384C464.765,606.572 466.049,607.28 467.729,607.28C469.781,607.28 470.981,606.236 470.981,604.688C470.981,603.488 470.261,602.72 468.677,602.336L467.297,602.012C466.337,601.784 465.989,601.46 465.989,600.968C465.989,600.308 466.553,599.912 467.561,599.912C468.485,599.912 469.217,600.248 469.685,600.884L470.777,600.08C470.285,599.132 469.085,598.544 467.585,598.544C465.641,598.544 464.441,599.552 464.441,600.992C464.441,602.18 465.233,602.972 466.805,603.344L468.161,603.668C469.073,603.896 469.433,604.22 469.433,604.76C469.433,605.468 468.833,605.912 467.777,605.912C466.685,605.912 465.797,605.444 465.305,604.592L464.201,605.384Z" fill="url(#logo-gradient)"/>
            <path d="M474.929,607.112L476.453,607.112L476.453,600.128L479.069,600.128L479.069,598.712L472.313,598.712L472.313,600.128L474.929,600.128L474.929,607.112Z" fill="url(#logo-gradient)"/>
            <path d="M494.225,607.112L496.049,607.112L493.493,603.968C495.017,603.776 495.833,602.876 495.833,601.388C495.833,599.696 494.765,598.712 492.845,598.712L489.281,598.712L489.281,607.112L490.793,607.112L490.793,604.004L491.777,604.004L494.225,607.112ZM490.793,600.104L492.737,600.104C493.793,600.104 494.249,600.488 494.249,601.388C494.249,602.264 493.793,602.66 492.737,602.66L490.793,602.66L490.793,600.104Z" fill="url(#logo-gradient)"/>
        </g>
        <g transform="matrix(1.14621,0,0,1.14621,-327.776,350.45)">
            <path d="M894.28,342.071L903.135,369.324L931.79,369.324L908.608,386.167L917.463,413.42L894.28,396.576L871.098,413.42L879.953,386.167L856.77,369.324L885.425,369.324L894.28,342.071ZM894.722,364.439L891.045,375.755L879.147,375.755L888.773,382.749L885.096,394.065L894.722,387.071L904.348,394.065L900.671,382.749L910.297,375.755L898.399,375.755L894.722,364.439Z" fill="url(#logo-gradient)"/>
        </g>
    </g>
</svg>
